<svg viewBox="0 0 172 172">
  <g fill="none" fill-rule="nonzero" stroke="none">
    <path d="M0,172v-172h172v172z" fill="none"></path>
    <g fill="currentColor">
      <path d=" M 0 86 L 0 172 L 172 172 L 172 0 L 0 0 L 0 86 Z  M 138.611 79.149 C 142.982 80.238 146.308 82.18 149.368 85.348 C 150.952 87.039 153.302 90.121 153.489 90.866 C 153.546 91.081 146.064 96.098 141.535 98.914 C 141.37 99.022 140.71 98.312 139.979 97.223 C 137.758 93.998 135.443 92.608 131.895 92.364 C 126.678 92.006 123.324 94.736 123.353 99.294 C 123.305 100.415 123.557 101.528 124.084 102.519 C 125.23 104.891 127.366 106.317 134.045 109.206 C 146.365 114.509 151.632 117.999 154.908 122.966 C 158.563 128.505 159.387 137.356 156.9 143.935 C 154.177 151.088 147.404 155.947 137.872 157.552 C 134.927 158.075 127.939 157.996 124.772 157.423 C 117.863 156.19 111.313 152.779 107.271 148.3 C 105.687 146.558 102.598 141.993 102.792 141.671 C 102.87 141.556 103.58 141.119 104.368 140.66 C 105.142 140.223 108.03 138.553 110.761 136.969 L 115.706 134.103 L 116.745 135.636 C 118.193 137.844 121.353 140.875 123.267 141.886 C 128.756 144.781 136.289 144.372 140.001 141.04 C 141.514 139.765 142.344 137.856 142.244 135.88 C 142.244 133.888 141.993 133.013 140.954 131.508 C 139.621 129.602 136.891 127.997 129.136 124.628 C 120.264 120.808 116.444 118.436 112.947 114.667 C 110.764 112.179 109.152 109.244 108.224 106.067 C 107.572 103.637 107.407 97.545 107.923 95.094 C 109.75 86.516 116.222 80.546 125.56 78.769 C 128.592 78.195 135.636 78.41 138.611 79.149 Z  M 98.234 86.33 L 98.291 93.375 L 75.895 93.375 L 75.895 156.986 L 60.057 156.986 L 60.057 93.375 L 37.682 93.375 L 37.682 86.466 C 37.682 82.639 37.761 79.443 37.869 79.371 C 37.955 79.256 51.579 79.199 68.091 79.228 L 98.155 79.314 L 98.234 86.33 Z "></path>
    </g>
  </g>
</svg>